<svg width="22" height="32" viewBox="0 0 22 32" fill="none" xmlns="http://www.w3.org/2000/svg">
<g clip-path="url(#clip0)">
<path opacity="0.4" d="M4.31343 21.99C4.00857 22.2704 3.59517 22.428 3.16411 22.428C2.73306 22.428 2.31965 22.2704 2.01479 21.99L0.478747 20.5831L0.466523 20.5718C0.165551 20.2918 -0.00223848 19.9131 5.36976e-05 19.5192C0.00234588 19.1253 0.174532 18.7483 0.478747 18.4712L7.0263 12.4619L10.8651 15.9912L4.31343 21.99Z" fill="#838383"/>
<path d="M21.2636 18.4881L21.2514 18.4775L12.0195 10.0069C11.8685 9.86657 11.689 9.75507 11.4912 9.67878C11.2934 9.60248 11.0811 9.56287 10.8666 9.56223C10.6521 9.56159 10.4396 9.59993 10.2412 9.67505C10.0429 9.75017 9.86255 9.86059 9.71065 9.99998L7.02766 12.4619L17.4065 22C17.7113 22.2805 18.1248 22.438 18.5558 22.438C18.9869 22.438 19.4003 22.2805 19.7051 22L21.2548 20.5894C21.5586 20.3117 21.7301 19.9345 21.7318 19.5404C21.7335 19.1464 21.565 18.7679 21.2636 18.4881Z" fill="#838383"/>
</g>
<defs>
<clipPath id="clip0">
<rect width="21.7301" height="32" fill="white"/>
</clipPath>
</defs>
</svg>
