<svg width="23" height="32" viewBox="0 0 23 32" fill="none" xmlns="http://www.w3.org/2000/svg">
<g clip-path="url(#clip0)">
<path opacity="0.4" d="M11.5744 16.0088L7.737 19.5382L1.18809 13.5288C0.883875 13.2517 0.711689 12.8748 0.709397 12.4808C0.707104 12.0869 0.874893 11.7083 1.17587 11.4282L1.18809 11.4169L2.7221 10.0101C3.02696 9.72959 3.44036 9.57202 3.87142 9.57202C4.30247 9.57202 4.71588 9.72959 5.02074 10.0101L11.5744 16.0088Z" fill="#434A81"/>
<path d="M21.9641 11.4107L20.4165 10.0001C20.1116 9.71958 19.6982 9.56201 19.2672 9.56201C18.8361 9.56201 18.4227 9.71958 18.1179 10.0001L7.73563 19.5382L10.42 22.0001L10.4241 22.0038C10.7311 22.2836 11.1463 22.4397 11.5783 22.4378C12.0104 22.4359 12.424 22.2762 12.7281 21.9938L21.9641 13.5226L21.9763 13.5119C22.2773 13.2317 22.4451 12.853 22.4428 12.459C22.4406 12.065 22.2684 11.6879 21.9641 11.4107Z" fill="#434A81"/>
</g>
<defs>
<clipPath id="clip0">
<rect x="0.709343" width="21.7301" height="32" fill="white"/>
</clipPath>
</defs>
</svg>
