<svg width="22" height="32" viewBox="0 0 22 32" fill="none" xmlns="http://www.w3.org/2000/svg">
<g clip-path="url(#clip0)">
<path opacity="0.4" d="M4.31343 21.99C4.00857 22.2705 3.59517 22.4281 3.16411 22.4281C2.73306 22.4281 2.31965 22.2705 2.01479 21.99L0.478747 20.5832L0.466523 20.5719C0.165551 20.2918 -0.00223848 19.9132 5.36976e-05 19.5193C0.00234588 19.1253 0.174532 18.7484 0.478747 18.4713L7.0263 12.4619L10.8651 15.9913L4.31343 21.99Z" fill="#434A81"/>
<path d="M21.2636 18.4881L21.2514 18.4775L12.0195 10.0069C11.8686 9.8666 11.689 9.7551 11.4912 9.67881C11.2934 9.60251 11.0811 9.5629 10.8666 9.56226C10.6521 9.56162 10.4396 9.59996 10.2412 9.67508C10.0429 9.7502 9.86255 9.86062 9.71065 10L7.02766 12.4619L17.4065 22C17.7114 22.2805 18.1248 22.4381 18.5558 22.4381C18.9869 22.4381 19.4003 22.2805 19.7051 22L21.2548 20.5894C21.5586 20.3118 21.7301 19.9345 21.7318 19.5405C21.7335 19.1464 21.565 18.7679 21.2636 18.4881Z" fill="#434A81"/>
</g>
<defs>
<clipPath id="clip0">
<rect width="21.7301" height="32" fill="white"/>
</clipPath>
</defs>
</svg>
