<svg width="22" height="32" viewBox="0 0 22 32" fill="none" xmlns="http://www.w3.org/2000/svg">
<g clip-path="url(#clip0)">
<path opacity="0.4" d="M10.8651 16.0088L7.02766 19.5381L0.478747 13.5288C0.174532 13.2517 0.00234588 12.8747 5.36976e-05 12.4808C-0.00223848 12.0868 0.165551 11.7082 0.466523 11.4281L0.478747 11.4169L2.01276 10.01C2.31761 9.72952 2.73102 9.57195 3.16207 9.57195C3.59313 9.57195 4.00654 9.72952 4.31139 10.01L10.8651 16.0088Z" fill="#838383"/>
<path d="M21.2548 11.4106L19.7072 10C19.4023 9.71952 18.9889 9.56195 18.5578 9.56195C18.1268 9.56195 17.7134 9.71952 17.4085 10L7.02629 19.5381L9.71064 22L9.71471 22.0037C10.0218 22.2835 10.4369 22.4396 10.869 22.4377C11.3011 22.4359 11.7146 22.2762 12.0188 21.9937L21.2548 13.5225L21.267 13.5119C21.568 13.2317 21.7358 12.8529 21.7335 12.4589C21.7312 12.0649 21.559 11.6878 21.2548 11.4106Z" fill="#838383"/>
</g>
<defs>
<clipPath id="clip0">
<rect width="21.7301" height="32" fill="white"/>
</clipPath>
</defs>
</svg>
