<svg width="14" height="21" viewBox="0 0 14 21" fill="none" xmlns="http://www.w3.org/2000/svg">
<g clip-path="url(#clip0)">
<path opacity="0.4" d="M0.35803 14.3813C0.128801 14.6195 3.05176e-05 14.9426 3.05176e-05 15.2795C3.05176e-05 15.6164 0.128801 15.9395 0.35803 16.1777L1.22262 17.0759C1.45197 17.3141 1.76296 17.4479 2.08722 17.4479C2.41148 17.4479 2.72247 17.3141 2.95181 17.0759L6.84209 13.0343L4.24831 10.3397L0.35803 14.3813ZM13.3262 4.5016L12.4616 3.60337C12.2322 3.36522 11.9212 3.23145 11.597 3.23145C11.2727 3.23145 10.9617 3.36522 10.7324 3.60337L6.84209 7.64498L9.43587 10.3397L13.3262 6.29805C13.5554 6.05978 13.6842 5.7367 13.6842 5.39982C13.6842 5.06295 13.5554 4.73986 13.3262 4.5016Z" fill="#434A81"/>
<path d="M13.3262 14.3813C13.5554 14.6195 13.6842 14.9426 13.6842 15.2795C13.6842 15.6164 13.5554 15.9395 13.3262 16.1777L12.4616 17.0759C12.2322 17.3141 11.9212 17.4479 11.597 17.4479C11.2727 17.4479 10.9617 17.3141 10.7324 17.0759L0.35803 6.29805C0.128801 6.05978 3.05176e-05 5.7367 3.05176e-05 5.39982C3.05176e-05 5.06295 0.128801 4.73986 0.35803 4.5016L1.22262 3.60337C1.45197 3.36522 1.76296 3.23145 2.08722 3.23145C2.41148 3.23145 2.72247 3.36522 2.95181 3.60337L13.3262 14.3813Z" fill="#434A81"/>
</g>
<defs>
<clipPath id="clip0">
<rect width="13.6842" height="20.6786" fill="white"/>
</clipPath>
</defs>
</svg>
