<svg width="14" height="20" viewBox="0 0 14 20" fill="none" xmlns="http://www.w3.org/2000/svg">
<g clip-path="url(#clip0)">
<path opacity="0.4" d="M0.35806 13.9089C0.128831 14.1394 6.10352e-05 14.4519 6.10352e-05 14.7777C6.10352e-05 15.1035 0.128831 15.416 0.35806 15.6464L1.22265 16.5152C1.452 16.7455 1.76299 16.8749 2.08725 16.8749C2.41151 16.8749 2.7225 16.7455 2.95184 16.5152L6.84212 12.6062L4.24834 9.99995L0.35806 13.9089ZM13.3262 4.35347L12.4616 3.48472C12.2322 3.25439 11.9213 3.125 11.597 3.125C11.2727 3.125 10.9617 3.25439 10.7324 3.48472L6.84212 7.3937L9.4359 9.99995L13.3262 6.09097C13.5554 5.86052 13.6842 5.54804 13.6842 5.22222C13.6842 4.8964 13.5554 4.58392 13.3262 4.35347Z" fill="#838383"/>
<path d="M13.3262 13.9089C13.5554 14.1394 13.6842 14.4519 13.6842 14.7777C13.6842 15.1035 13.5554 15.416 13.3262 15.6464L12.4616 16.5152C12.2322 16.7455 11.9213 16.8749 11.597 16.8749C11.2727 16.8749 10.9617 16.7455 10.7324 16.5152L0.35806 6.09097C0.128831 5.86052 6.10352e-05 5.54804 6.10352e-05 5.22222C6.10352e-05 4.8964 0.128831 4.58392 0.35806 4.35347L1.22265 3.48472C1.452 3.25439 1.76299 3.125 2.08725 3.125C2.41151 3.125 2.7225 3.25439 2.95184 3.48472L13.3262 13.9089Z" fill="#838383"/>
</g>
<defs>
<clipPath id="clip0">
<rect width="13.6842" height="20" fill="white"/>
</clipPath>
</defs>
</svg>
