<svg width="36" height="32" viewBox="0 0 36 32" fill="none" xmlns="http://www.w3.org/2000/svg">
<g clip-path="url(#clip0)">
<path opacity="0.4" d="M22 17.9937H10.1438L4.96875 21.875C4.87851 21.9423 4.7713 21.9832 4.65914 21.993C4.54698 22.0028 4.4343 21.9812 4.33373 21.9306C4.23316 21.88 4.14866 21.8024 4.08972 21.7065C4.03078 21.6105 3.99971 21.5001 4 21.3875V18C2.93944 17.999 1.9226 17.5773 1.17267 16.8273C0.422739 16.0774 0.000992881 15.0606 0 14L0 4C0.000992881 2.93944 0.422739 1.9226 1.17267 1.17267C1.9226 0.422739 2.93944 0.000992881 4 0H22C23.0606 0.000992881 24.0774 0.422739 24.8273 1.17267C25.5773 1.9226 25.999 2.93944 26 4V14C25.9999 14.525 25.8964 15.0448 25.6952 15.5297C25.4941 16.0146 25.1994 16.4551 24.8279 16.826C24.4564 17.197 24.0154 17.491 23.5302 17.6914C23.0449 17.8917 22.525 17.9945 22 17.9937Z" fill="#838383"/>
<path d="M36 14V24C35.999 25.0606 35.5773 26.0774 34.8273 26.8274C34.0774 27.5773 33.0606 27.999 32 28H30V31.3938C30.0003 31.5064 29.9692 31.6168 29.9103 31.7127C29.8513 31.8087 29.7668 31.8863 29.6663 31.9369C29.5657 31.9875 29.453 32.0091 29.3409 31.9993C29.2287 31.9895 29.1215 31.9486 29.0312 31.8813L23.8563 28H16C14.9394 27.999 13.9226 27.5773 13.1727 26.8274C12.4227 26.0774 12.001 25.0606 12 24V20H22C23.5905 19.9975 25.1152 19.3646 26.2399 18.2399C27.3646 17.1152 27.9975 15.5905 28 14V10H32C33.0606 10.001 34.0774 10.4227 34.8273 11.1727C35.5773 11.9226 35.999 12.9394 36 14Z" fill="#838383"/>
</g>
<defs>
<clipPath id="clip0">
<rect width="36" height="32" fill="white"/>
</clipPath>
</defs>
</svg>
