<svg width="156" height="26" viewBox="0 0 156 26" fill="none" xmlns="http://www.w3.org/2000/svg">
<g clip-path="url(#clip0)">
<path d="M62.5503 4.50231C63.1883 4.23546 63.8583 4.04709 64.5442 4C66.2669 4 68.0055 4 69.7282 4C70.6853 4.0157 71.6583 3.9843 72.6153 4.0157C73.0779 4.07849 73.5405 4.20406 73.8914 4.5337C73.9552 4.58079 73.9711 4.65928 74.003 4.72207C73.6681 4.72207 73.3491 4.72207 73.0141 4.76916C71.9294 4.91043 70.8767 5.33426 70.0472 6.04063C69.7282 6.32318 69.4251 6.62142 69.2178 6.99815C67.7184 6.99815 66.219 6.99815 64.7196 6.99815C64.1773 6.99815 63.603 7.23361 63.3478 7.70452C63.1405 8.04986 63.1245 8.44229 63.1405 8.83472C63.1405 9.82364 63.1405 10.7969 63.1405 11.7858C63.1405 12.2724 63.284 12.7904 63.603 13.1671C63.938 13.5439 64.4484 13.7479 64.9589 13.7479C66.6178 13.7479 68.2607 13.7479 69.9196 13.7479C70.6693 13.7322 71.419 13.7636 72.1687 13.7322C72.5356 13.6694 72.9024 13.5439 73.1736 13.3084C73.6521 12.916 73.8754 12.2881 73.9073 11.6916C73.9073 11.3149 73.9073 10.9538 73.9073 10.5771C74.8325 10.5771 75.7576 10.5771 76.6828 10.5771C76.6828 11.8329 76.4914 13.12 75.8853 14.2345C75.3748 15.1607 74.5454 15.9141 73.5405 16.3066C73.0619 16.4949 72.5515 16.6362 72.0251 16.6205C69.9196 16.6205 67.83 16.6205 65.7245 16.6205C64.4963 17.5152 63.2681 18.4571 62.0399 19.3832C62.3748 18.3158 62.7098 17.2327 63.0448 16.1653C61.992 15.8984 61.0509 15.2235 60.5405 14.2659C60.1576 13.5753 59.9822 12.7904 59.9981 12.0212C59.9981 10.9695 59.9981 9.90212 59.9981 8.85042C59.9822 8.03416 60.0938 7.20222 60.4607 6.44875C60.8914 5.56971 61.673 4.89474 62.5503 4.50231Z" fill="#5A5A5A"/>
<path d="M72.4736 6.11932C73.1755 5.91526 73.8933 5.82108 74.627 5.82108C76.908 5.82108 79.189 5.82108 81.47 5.82108C82.6184 5.78968 83.8307 6.08793 84.7239 6.84139C85.3301 7.3437 85.7289 8.08146 85.8884 8.85062C86.0319 9.46281 85.9841 10.0907 86 10.7186C86 11.5662 86 12.4139 86 13.2772C86 13.8737 86.0479 14.5016 85.8405 15.0824C85.3939 16.4166 84.2614 17.3899 83.0491 18.0335C83.2405 19.0224 83.4798 20.0113 83.6712 21.0159C82.5706 20.184 81.454 19.3677 80.3534 18.5358C78.2798 18.5358 76.2062 18.5358 74.1166 18.5358C73.7338 18.5358 73.3509 18.4416 73 18.2846C72.7129 18.159 72.4736 17.9864 72.2184 17.8294C73.319 17.8451 74.3877 17.4527 75.3129 16.8719C75.9031 16.4951 76.4454 16.0713 76.908 15.5533C78.3755 15.5376 79.8589 15.569 81.3264 15.5376C81.789 15.4905 82.2516 15.3335 82.5706 15.0039C82.9055 14.6743 83.0651 14.219 83.1129 13.7795C83.1129 13.701 83.1129 13.6226 83.1129 13.5441C83.097 13.0418 83.1289 12.5238 83.1129 12.0214C83.1129 11.4563 83.1289 10.8913 83.0491 10.3262C82.9374 9.69827 82.5387 9.11748 81.9166 8.89772C81.5019 8.70935 81.0552 8.77214 80.6246 8.75644C78.7264 8.75644 76.8282 8.75644 74.9301 8.75644C74.4356 8.75644 73.9411 8.86632 73.5104 9.08608C72.9522 9.38433 72.5534 9.96512 72.5215 10.593C72.5215 11.0796 72.5215 11.5662 72.5215 12.0528C71.5166 12.0528 70.5117 12.0528 69.4908 12.0528C69.4908 11.3779 69.4908 10.7029 69.4908 10.0279C69.5546 8.88202 70.0331 7.73613 70.9104 6.98267C71.3252 6.62163 71.8196 6.35478 72.3301 6.16641C72.362 6.16641 72.4258 6.15072 72.4577 6.13502L72.4736 6.11932Z" fill="#5A5A5A"/>
</g>
<path d="M0.924 14.816C0.746667 14.2933 0.658 13.4347 0.658 12.24C0.658 11.0453 0.746667 10.1867 0.924 9.664C1.176 8.89867 1.59133 8.32 2.17 7.928C2.758 7.52667 3.472 7.326 4.312 7.326C5.11467 7.326 5.80067 7.51267 6.37 7.886C6.93933 8.25 7.35933 8.768 7.63 9.44C7.67667 9.524 7.65333 9.58 7.56 9.608L6.034 10.294C5.95 10.3407 5.88467 10.3173 5.838 10.224C5.53 9.50533 5.026 9.146 4.326 9.146C3.598 9.146 3.122 9.496 2.898 10.196C2.79533 10.5133 2.744 11.1947 2.744 12.24C2.744 13.2853 2.79533 13.9667 2.898 14.284C3.122 14.984 3.598 15.334 4.326 15.334C5.026 15.334 5.53 14.9747 5.838 14.256C5.88467 14.1627 5.95 14.1393 6.034 14.186L7.56 14.872C7.65333 14.9 7.67667 14.956 7.63 15.04C7.35933 15.712 6.93933 16.2347 6.37 16.608C5.80067 16.972 5.11467 17.154 4.312 17.154C3.472 17.154 2.758 16.958 2.17 16.566C1.59133 16.1647 1.176 15.5813 0.924 14.816ZM10.4047 17H8.72473C8.6314 17 8.58473 16.9533 8.58473 16.86V10.364C8.58473 10.2707 8.6314 10.224 8.72473 10.224H10.4047C10.4981 10.224 10.5447 10.2707 10.5447 10.364V10.938H10.5587C10.9041 10.3593 11.4921 10.07 12.3227 10.07C12.7987 10.07 13.1954 10.2053 13.5127 10.476C13.5781 10.532 13.5921 10.5973 13.5547 10.672L12.7707 12.1C12.7241 12.156 12.6587 12.1653 12.5747 12.128C12.2387 11.9133 11.9121 11.8107 11.5947 11.82C10.8947 11.848 10.5447 12.338 10.5447 13.29V16.86C10.5447 16.9533 10.4981 17 10.4047 17ZM15.0917 19.52H14.6157C14.5223 19.52 14.4757 19.4733 14.4757 19.38V18.008C14.4757 17.9147 14.5223 17.868 14.6157 17.868H14.9097C15.1523 17.868 15.3437 17.812 15.4837 17.7C15.633 17.5973 15.7497 17.42 15.8337 17.168L16.0157 16.664L13.4957 10.364C13.4677 10.2707 13.505 10.224 13.6077 10.224H15.3997C15.4837 10.224 15.5397 10.2707 15.5677 10.364L16.9257 14.284H16.9537L18.2137 10.364C18.2417 10.2707 18.2977 10.224 18.3817 10.224H20.1177C20.2203 10.224 20.2577 10.2707 20.2297 10.364L17.4857 17.574C17.2057 18.3113 16.8883 18.82 16.5337 19.1C16.1883 19.38 15.7077 19.52 15.0917 19.52ZM22.7614 19.52H21.0814C20.988 19.52 20.9414 19.4733 20.9414 19.38V10.364C20.9414 10.2707 20.988 10.224 21.0814 10.224H22.7614C22.8547 10.224 22.9014 10.2707 22.9014 10.364V10.854H22.9154C23.2607 10.3313 23.8534 10.07 24.6934 10.07C25.8694 10.07 26.6347 10.6113 26.9894 11.694C27.148 12.198 27.2274 12.8373 27.2274 13.612C27.2274 14.3867 27.148 15.026 26.9894 15.53C26.6347 16.6127 25.8694 17.154 24.6934 17.154C23.8534 17.154 23.2607 16.8927 22.9154 16.37H22.9014V19.38C22.9014 19.4733 22.8547 19.52 22.7614 19.52ZM24.0634 15.502C24.6047 15.502 24.9547 15.2593 25.1134 14.774C25.1974 14.5033 25.2394 14.116 25.2394 13.612C25.2394 13.108 25.1974 12.7207 25.1134 12.45C24.964 11.9647 24.614 11.722 24.0634 11.722C23.522 11.722 23.1767 11.9647 23.0274 12.45C22.9434 12.7207 22.9014 13.108 22.9014 13.612C22.9014 14.116 22.9434 14.5033 23.0274 14.774C23.186 15.2593 23.5314 15.502 24.0634 15.502ZM31.3403 17.084H30.5983C29.8236 17.084 29.2683 16.9067 28.9323 16.552C28.6056 16.188 28.4423 15.614 28.4423 14.83V11.75C28.4423 11.694 28.4143 11.666 28.3583 11.666H27.9383C27.845 11.666 27.7983 11.6193 27.7983 11.526V10.364C27.7983 10.2707 27.845 10.224 27.9383 10.224H28.3583C28.4143 10.224 28.4423 10.196 28.4423 10.14V8.32C28.4423 8.22667 28.489 8.18 28.5823 8.18H30.2483C30.3416 8.18 30.3883 8.22667 30.3883 8.32V10.14C30.3883 10.196 30.4163 10.224 30.4723 10.224H31.3403C31.4336 10.224 31.4803 10.2707 31.4803 10.364V11.526C31.4803 11.6193 31.4336 11.666 31.3403 11.666H30.4723C30.4163 11.666 30.3883 11.694 30.3883 11.75V14.746C30.3883 14.998 30.435 15.1753 30.5283 15.278C30.6216 15.3713 30.7803 15.418 31.0043 15.418H31.3403C31.4336 15.418 31.4803 15.4647 31.4803 15.558V16.944C31.4803 17.0373 31.4336 17.084 31.3403 17.084ZM37.2771 16.664C36.7637 16.9907 36.1431 17.154 35.4151 17.154C34.6871 17.154 34.0617 16.9907 33.5391 16.664C33.0257 16.328 32.6711 15.8567 32.4751 15.25C32.3257 14.774 32.2511 14.228 32.2511 13.612C32.2511 12.996 32.3257 12.45 32.4751 11.974C32.6711 11.3673 33.0257 10.9007 33.5391 10.574C34.0617 10.238 34.6871 10.07 35.4151 10.07C36.1431 10.07 36.7637 10.238 37.2771 10.574C37.7997 10.9007 38.1591 11.3673 38.3551 11.974C38.5044 12.45 38.5791 12.996 38.5791 13.612C38.5791 14.228 38.5044 14.774 38.3551 15.25C38.1591 15.8567 37.7997 16.328 37.2771 16.664ZM34.3651 14.774C34.5237 15.2593 34.8737 15.502 35.4151 15.502C35.9564 15.502 36.3064 15.2593 36.4651 14.774C36.5491 14.5127 36.5911 14.1253 36.5911 13.612C36.5911 13.0987 36.5491 12.7113 36.4651 12.45C36.3064 11.9647 35.9564 11.722 35.4151 11.722C34.8737 11.722 34.5237 11.9647 34.3651 12.45C34.2811 12.7113 34.2391 13.0987 34.2391 13.612C34.2391 14.1253 34.2811 14.5127 34.3651 14.774ZM39.6889 16.86V7.62C39.6889 7.52667 39.7356 7.48 39.8289 7.48H45.9329C46.0262 7.48 46.0729 7.52667 46.0729 7.62V9.118C46.0729 9.21133 46.0262 9.258 45.9329 9.258H41.8309C41.7749 9.258 41.7469 9.286 41.7469 9.342V11.344C41.7469 11.4 41.7749 11.428 41.8309 11.428H45.2469C45.3402 11.428 45.3869 11.4747 45.3869 11.568V13.052C45.3869 13.1453 45.3402 13.192 45.2469 13.192H41.8309C41.7749 13.192 41.7469 13.22 41.7469 13.276V16.86C41.7469 16.9533 41.7002 17 41.6069 17H39.8289C39.7356 17 39.6889 16.9533 39.6889 16.86ZM54.3839 17H52.3959C52.2932 17 52.2232 16.9533 52.1859 16.86L50.5479 13.374H49.2739C49.2179 13.374 49.1899 13.402 49.1899 13.458V16.86C49.1899 16.9533 49.1432 17 49.0499 17H47.2719C47.1785 17 47.1319 16.9533 47.1319 16.86V7.62C47.1319 7.52667 47.1785 7.48 47.2719 7.48H51.0659C52.0365 7.48 52.8159 7.75533 53.4039 8.306C54.0012 8.84733 54.2999 9.55667 54.2999 10.434C54.2999 11.0407 54.1505 11.5773 53.8519 12.044C53.5532 12.5013 53.1379 12.8467 52.6059 13.08L54.4819 16.832C54.5005 16.8693 54.5005 16.9067 54.4819 16.944C54.4632 16.9813 54.4305 17 54.3839 17ZM50.9539 11.624C51.3459 11.624 51.6585 11.5167 51.8919 11.302C52.1252 11.0873 52.2419 10.798 52.2419 10.434C52.2419 10.0793 52.1252 9.79467 51.8919 9.58C51.6585 9.36533 51.3459 9.258 50.9539 9.258H49.2739C49.2179 9.258 49.1899 9.286 49.1899 9.342V11.54C49.1899 11.596 49.2179 11.624 49.2739 11.624H50.9539ZM91.0353 14.816C90.858 14.2933 90.7693 13.4347 90.7693 12.24C90.7693 11.0453 90.858 10.1867 91.0353 9.664C91.2873 8.89867 91.7027 8.32 92.2813 7.928C92.8693 7.52667 93.5833 7.326 94.4233 7.326C95.226 7.326 95.912 7.51267 96.4813 7.886C97.0507 8.25 97.4707 8.768 97.7413 9.44C97.788 9.524 97.7647 9.58 97.6713 9.608L96.1453 10.294C96.0613 10.3407 95.996 10.3173 95.9493 10.224C95.6413 9.50533 95.1373 9.146 94.4373 9.146C93.7093 9.146 93.2333 9.496 93.0093 10.196C92.9067 10.5133 92.8553 11.1947 92.8553 12.24C92.8553 13.2853 92.9067 13.9667 93.0093 14.284C93.2333 14.984 93.7093 15.334 94.4373 15.334C95.1373 15.334 95.6413 14.9747 95.9493 14.256C95.996 14.1627 96.0613 14.1393 96.1453 14.186L97.6713 14.872C97.7647 14.9 97.788 14.956 97.7413 15.04C97.4707 15.712 97.0507 16.2347 96.4813 16.608C95.912 16.972 95.226 17.154 94.4233 17.154C93.5833 17.154 92.8693 16.958 92.2813 16.566C91.7027 16.1647 91.2873 15.5813 91.0353 14.816ZM103.386 16.664C102.873 16.9907 102.252 17.154 101.524 17.154C100.796 17.154 100.171 16.9907 99.6481 16.664C99.1347 16.328 98.7801 15.8567 98.5841 15.25C98.4347 14.774 98.3601 14.228 98.3601 13.612C98.3601 12.996 98.4347 12.45 98.5841 11.974C98.7801 11.3673 99.1347 10.9007 99.6481 10.574C100.171 10.238 100.796 10.07 101.524 10.07C102.252 10.07 102.873 10.238 103.386 10.574C103.909 10.9007 104.268 11.3673 104.464 11.974C104.613 12.45 104.688 12.996 104.688 13.612C104.688 14.228 104.613 14.774 104.464 15.25C104.268 15.8567 103.909 16.328 103.386 16.664ZM100.474 14.774C100.633 15.2593 100.983 15.502 101.524 15.502C102.065 15.502 102.415 15.2593 102.574 14.774C102.658 14.5127 102.7 14.1253 102.7 13.612C102.7 13.0987 102.658 12.7113 102.574 12.45C102.415 11.9647 102.065 11.722 101.524 11.722C100.983 11.722 100.633 11.9647 100.474 12.45C100.39 12.7113 100.348 13.0987 100.348 13.612C100.348 14.1253 100.39 14.5127 100.474 14.774ZM115.738 17H114.058C113.965 17 113.918 16.9533 113.918 16.86V12.968C113.918 12.5853 113.825 12.2867 113.638 12.072C113.461 11.848 113.199 11.736 112.854 11.736C112.527 11.736 112.271 11.848 112.084 12.072C111.897 12.296 111.804 12.5947 111.804 12.968V16.86C111.804 16.9533 111.757 17 111.664 17H109.984C109.891 17 109.844 16.9533 109.844 16.86V12.968C109.844 12.5853 109.755 12.2867 109.578 12.072C109.401 11.848 109.139 11.736 108.794 11.736C108.458 11.736 108.197 11.848 108.01 12.072C107.823 12.296 107.73 12.5947 107.73 12.968V16.86C107.73 16.9533 107.683 17 107.59 17H105.91C105.817 17 105.77 16.9533 105.77 16.86V10.364C105.77 10.2707 105.817 10.224 105.91 10.224H107.59C107.683 10.224 107.73 10.2707 107.73 10.364V10.84H107.744C108.117 10.3267 108.701 10.07 109.494 10.07C110.306 10.07 110.913 10.3547 111.314 10.924H111.328C111.869 10.3547 112.579 10.07 113.456 10.07C114.24 10.07 114.837 10.2987 115.248 10.756C115.668 11.2133 115.878 11.8247 115.878 12.59V16.86C115.878 16.9533 115.831 17 115.738 17ZM127.2 17H125.52C125.427 17 125.38 16.9533 125.38 16.86V12.968C125.38 12.5853 125.287 12.2867 125.1 12.072C124.923 11.848 124.662 11.736 124.316 11.736C123.99 11.736 123.733 11.848 123.546 12.072C123.36 12.296 123.266 12.5947 123.266 12.968V16.86C123.266 16.9533 123.22 17 123.126 17H121.446C121.353 17 121.306 16.9533 121.306 16.86V12.968C121.306 12.5853 121.218 12.2867 121.04 12.072C120.863 11.848 120.602 11.736 120.256 11.736C119.92 11.736 119.659 11.848 119.472 12.072C119.286 12.296 119.192 12.5947 119.192 12.968V16.86C119.192 16.9533 119.146 17 119.052 17H117.372C117.279 17 117.232 16.9533 117.232 16.86V10.364C117.232 10.2707 117.279 10.224 117.372 10.224H119.052C119.146 10.224 119.192 10.2707 119.192 10.364V10.84H119.206C119.58 10.3267 120.163 10.07 120.956 10.07C121.768 10.07 122.375 10.3547 122.776 10.924H122.79C123.332 10.3547 124.041 10.07 124.918 10.07C125.702 10.07 126.3 10.2987 126.71 10.756C127.13 11.2133 127.34 11.8247 127.34 12.59V16.86C127.34 16.9533 127.294 17 127.2 17ZM131.593 17.154C130.828 17.154 130.184 16.986 129.661 16.65C129.148 16.314 128.793 15.838 128.597 15.222C128.438 14.746 128.359 14.2093 128.359 13.612C128.359 12.9773 128.434 12.436 128.583 11.988C128.779 11.3813 129.134 10.91 129.647 10.574C130.16 10.238 130.776 10.07 131.495 10.07C132.232 10.07 132.853 10.238 133.357 10.574C133.87 10.91 134.225 11.3767 134.421 11.974C134.57 12.45 134.645 13.1453 134.645 14.06C134.645 14.1533 134.594 14.2 134.491 14.2H130.389C130.333 14.2 130.305 14.228 130.305 14.284C130.324 14.424 130.352 14.55 130.389 14.662C130.576 15.2593 131.042 15.558 131.789 15.558C132.396 15.558 132.914 15.3573 133.343 14.956C133.427 14.8907 133.492 14.8907 133.539 14.956L134.463 15.824C134.538 15.8893 134.542 15.9547 134.477 16.02C133.768 16.776 132.806 17.154 131.593 17.154ZM130.389 12.898H132.629C132.685 12.898 132.713 12.87 132.713 12.814C132.713 12.6367 132.69 12.4687 132.643 12.31C132.475 11.8153 132.097 11.568 131.509 11.568C130.921 11.568 130.543 11.8153 130.375 12.31C130.328 12.4687 130.305 12.6367 130.305 12.814C130.305 12.87 130.333 12.898 130.389 12.898ZM141.622 17H139.942C139.848 17 139.802 16.9533 139.802 16.86V12.968C139.802 12.5853 139.713 12.2867 139.536 12.072C139.358 11.848 139.097 11.736 138.752 11.736C138.416 11.736 138.154 11.848 137.968 12.072C137.781 12.296 137.688 12.5947 137.688 12.968V16.86C137.688 16.9533 137.641 17 137.548 17H135.868C135.774 17 135.728 16.9533 135.728 16.86V10.364C135.728 10.2707 135.774 10.224 135.868 10.224H137.548C137.641 10.224 137.688 10.2707 137.688 10.364V10.84H137.702C138.075 10.3267 138.658 10.07 139.452 10.07C140.189 10.07 140.758 10.3033 141.16 10.77C141.561 11.2273 141.762 11.834 141.762 12.59V16.86C141.762 16.9533 141.715 17 141.622 17ZM146.154 17.084H145.412C144.637 17.084 144.082 16.9067 143.746 16.552C143.419 16.188 143.256 15.614 143.256 14.83V11.75C143.256 11.694 143.228 11.666 143.172 11.666H142.752C142.659 11.666 142.612 11.6193 142.612 11.526V10.364C142.612 10.2707 142.659 10.224 142.752 10.224H143.172C143.228 10.224 143.256 10.196 143.256 10.14V8.32C143.256 8.22667 143.303 8.18 143.396 8.18H145.062C145.155 8.18 145.202 8.22667 145.202 8.32V10.14C145.202 10.196 145.23 10.224 145.286 10.224H146.154C146.247 10.224 146.294 10.2707 146.294 10.364V11.526C146.294 11.6193 146.247 11.666 146.154 11.666H145.286C145.23 11.666 145.202 11.694 145.202 11.75V14.746C145.202 14.998 145.249 15.1753 145.342 15.278C145.435 15.3713 145.594 15.418 145.818 15.418H146.154C146.247 15.418 146.294 15.4647 146.294 15.558V16.944C146.294 17.0373 146.247 17.084 146.154 17.084ZM150.061 17.154C148.81 17.154 147.783 16.804 146.981 16.104C146.915 16.0387 146.915 15.9733 146.981 15.908L147.891 14.886C147.947 14.83 148.012 14.83 148.087 14.886C148.731 15.3807 149.421 15.628 150.159 15.628C150.859 15.628 151.209 15.4133 151.209 14.984C151.209 14.8067 151.139 14.676 150.999 14.592C150.868 14.4987 150.616 14.4333 150.243 14.396L149.487 14.312C148.768 14.2373 148.217 14.0273 147.835 13.682C147.461 13.3273 147.275 12.8467 147.275 12.24C147.275 11.568 147.517 11.0407 148.003 10.658C148.497 10.266 149.183 10.07 150.061 10.07C151.153 10.07 152.067 10.35 152.805 10.91C152.87 10.9753 152.875 11.0453 152.819 11.12L152.035 12.086C151.979 12.1513 151.913 12.1607 151.839 12.114C151.269 11.75 150.658 11.568 150.005 11.568C149.435 11.568 149.151 11.7547 149.151 12.128C149.151 12.296 149.216 12.422 149.347 12.506C149.477 12.59 149.725 12.6507 150.089 12.688L150.831 12.772C152.333 12.9213 153.085 13.6073 153.085 14.83C153.075 15.5393 152.805 16.104 152.273 16.524C151.75 16.944 151.013 17.154 150.061 17.154Z" fill="#5A5A5A"/>
<defs>
<clipPath id="clip0">
<rect x="60" y="4" width="26" height="17" fill="white"/>
</clipPath>
</defs>
</svg>
