<svg width="32" height="32" viewBox="0 0 32 32" fill="none" xmlns="http://www.w3.org/2000/svg">
<path opacity="0.4" d="M16 0C12.8355 0 9.74207 0.938384 7.11088 2.69649C4.4797 4.45459 2.42894 6.95345 1.21793 9.87707C0.0069325 12.8007 -0.309921 16.0177 0.307443 19.1214C0.924806 22.2251 2.44866 25.0761 4.6863 27.3137C6.92394 29.5513 9.77487 31.0752 12.8786 31.6926C15.9823 32.3099 19.1993 31.9931 22.1229 30.7821C25.0466 29.5711 27.5454 27.5203 29.3035 24.8891C31.0616 22.2579 32 19.1645 32 16C32 11.7565 30.3143 7.68687 27.3137 4.68629C24.3131 1.68571 20.2435 0 16 0ZM21.161 10.839C21.5698 10.8382 21.9696 10.9587 22.3098 11.1853C22.65 11.4119 22.9153 11.7344 23.0721 12.1119C23.2288 12.4894 23.2701 12.9049 23.1905 13.3059C23.111 13.7068 22.9142 14.0751 22.6252 14.3642C22.3361 14.6532 21.9678 14.85 21.5669 14.9295C21.1659 15.0091 20.7504 14.9678 20.3729 14.811C19.9954 14.6543 19.673 14.389 19.4464 14.0488C19.2198 13.7086 19.0992 13.3088 19.1 12.9C19.1011 12.3537 19.3185 11.8301 19.7048 11.4438C20.0911 11.0575 20.6147 10.8401 21.161 10.839ZM10.838 10.839C11.2466 10.8388 11.6461 10.9598 11.9859 11.1868C12.3258 11.4138 12.5906 11.7364 12.7469 12.114C12.9032 12.4915 12.944 12.907 12.8642 13.3077C12.7843 13.7085 12.5873 14.0765 12.2981 14.3652C12.009 14.654 11.6406 14.8504 11.2398 14.9297C10.8389 15.009 10.4235 14.9676 10.0462 14.8108C9.6689 14.6539 9.34661 14.3886 9.12015 14.0484C8.89368 13.7083 8.77322 13.3086 8.77401 12.9C8.77507 12.353 8.9931 11.8288 9.38024 11.4424C9.76739 11.056 10.292 10.839 10.839 10.839H10.838ZM23.406 21.819C22.5016 22.9054 21.3693 23.7795 20.0893 24.3794C18.8094 24.9794 17.4131 25.2903 15.9995 25.2903C14.5859 25.2903 13.1897 24.9794 11.9097 24.3794C10.6297 23.7795 9.4974 22.9054 8.59301 21.819C8.43089 21.6071 8.35706 21.3407 8.38696 21.0756C8.41686 20.8104 8.54818 20.5672 8.75342 20.3967C8.95866 20.2262 9.2219 20.1418 9.488 20.161C9.75411 20.1803 10.0024 20.3018 10.181 20.5C10.8925 21.3522 11.7825 22.0378 12.7881 22.5082C13.7937 22.9787 14.8903 23.2225 16.0005 23.2225C17.1107 23.2225 18.2073 22.9787 19.2129 22.5082C20.2185 22.0378 21.1085 21.3522 21.82 20.5C21.9999 20.3067 22.2469 20.1896 22.5104 20.1728C22.7739 20.1559 23.0338 20.2406 23.2368 20.4094C23.4398 20.5783 23.5704 20.8184 23.6019 21.0805C23.6334 21.3427 23.5633 21.6069 23.406 21.819Z" fill="#5A5A5A"/>
<path d="M21.151 10.842C20.7436 10.842 20.3453 10.9629 20.0065 11.1892C19.6678 11.4156 19.4037 11.7373 19.2478 12.1137C19.0919 12.4901 19.0511 12.9043 19.1306 13.3039C19.2101 13.7035 19.4063 14.0706 19.6944 14.3587C19.9825 14.6468 20.3495 14.843 20.7491 14.9225C21.1487 15.0019 21.5629 14.9612 21.9393 14.8052C22.3158 14.6493 22.6375 14.3853 22.8638 14.0465C23.0902 13.7077 23.211 13.3095 23.211 12.902C23.211 12.3557 22.994 11.8317 22.6077 11.4454C22.2213 11.0591 21.6974 10.842 21.151 10.842ZM10.851 10.842C10.4436 10.842 10.0453 10.9629 9.70654 11.1892C9.36778 11.4156 9.10375 11.7373 8.94783 12.1137C8.79191 12.4901 8.75111 12.9043 8.8306 13.3039C8.91008 13.7035 9.10628 14.0706 9.39438 14.3587C9.68247 14.6468 10.0495 14.843 10.4491 14.9225C10.8487 15.0019 11.2629 14.9612 11.6393 14.8052C12.0158 14.6493 12.3375 14.3853 12.5638 14.0465C12.7902 13.7077 12.911 13.3095 12.911 12.902C12.911 12.6313 12.8577 12.3633 12.754 12.1133C12.6504 11.8632 12.4984 11.636 12.3069 11.4447C12.1154 11.2534 11.8881 11.1017 11.638 10.9983C11.3878 10.8949 11.1197 10.8418 10.849 10.842H10.851Z" fill="#5A5A5A"/>
</svg>
