<svg width="32" height="24" viewBox="0 0 32 24" fill="none" xmlns="http://www.w3.org/2000/svg">
<path d="M29 24H3C2.20435 24 1.44129 23.6839 0.87868 23.1213C0.31607 22.5587 0 21.7956 0 21L0 3C0 2.20435 0.31607 1.44129 0.87868 0.87868C1.44129 0.31607 2.20435 0 3 0L29 0C29.7956 0 30.5587 0.31607 31.1213 0.87868C31.6839 1.44129 32 2.20435 32 3V21C32 21.7956 31.6839 22.5587 31.1213 23.1213C30.5587 23.6839 29.7956 24 29 24ZM10.332 8C9.76061 7.99463 9.19389 8.10342 8.6651 8.31997C8.13631 8.53653 7.65608 8.8565 7.25259 9.26111C6.84909 9.66572 6.53045 10.1468 6.31536 10.6762C6.10027 11.2056 5.99305 11.7726 6 12.344V12.367C5.97576 12.9439 6.07213 13.5194 6.28295 14.0569C6.49377 14.5944 6.8144 15.082 7.22435 15.4886C7.63429 15.8952 8.12455 16.2117 8.66378 16.4181C9.20302 16.6244 9.77936 16.716 10.356 16.687C11.6421 16.6867 12.8849 16.2223 13.856 15.379V11.852H10.284V13.136H12.431V14.707C11.8387 15.1271 11.1291 15.3496 10.403 15.343C10.0132 15.3518 9.62579 15.2791 9.26568 15.1295C8.90558 14.9799 8.58069 14.7568 8.31182 14.4743C8.04296 14.1919 7.83605 13.8565 7.70434 13.4894C7.57264 13.1224 7.51905 12.7319 7.547 12.343V12.32C7.54016 11.5523 7.81846 10.8093 8.328 10.235C8.57096 9.95928 8.86974 9.73834 9.20454 9.5868C9.53933 9.43526 9.90251 9.35659 10.27 9.356C11.1425 9.33303 11.9885 9.65664 12.623 10.256L13.56 9.14C12.6734 8.35436 11.5154 7.94539 10.332 8ZM19.104 8.144V16.544H20.58V13.124H24.815V11.78H20.58V9.488H25.355V8.144H19.104ZM15.624 8.144V16.544H17.1V8.144H15.624Z" fill="#5A5A5A"/>
</svg>
