<svg width="32" height="24" viewBox="0 0 32 24" fill="none" xmlns="http://www.w3.org/2000/svg">
<path opacity="0.4" d="M27.834 20.1871H4.16699V17.0621L8.57399 12.4061C8.64068 12.3336 8.72168 12.2757 8.81187 12.2361C8.90207 12.1965 8.99949 12.1761 9.09799 12.1761C9.19649 12.1761 9.29391 12.1965 9.38411 12.2361C9.4743 12.2757 9.55531 12.3336 9.62199 12.4061L13.042 16.0171L21.394 7.19406C21.4607 7.12157 21.5417 7.06371 21.6319 7.02412C21.7221 6.98454 21.8195 6.96411 21.918 6.96411C22.0165 6.96411 22.1139 6.98454 22.2041 7.02412C22.2943 7.06371 22.3753 7.12157 22.442 7.19406L27.834 12.8941V20.1871Z" fill="#434A81"/>
<path d="M29 0H3C2.20435 0 1.44129 0.316068 0.87868 0.878677C0.31607 1.44129 0 2.20435 0 3L0 21C0 21.7956 0.31607 22.5587 0.87868 23.1213C1.44129 23.6839 2.20435 24 3 24H29C29.7956 24 30.5587 23.6839 31.1213 23.1213C31.6839 22.5587 32 21.7956 32 21V3C32 2.20435 31.6839 1.44129 31.1213 0.878677C30.5587 0.316068 29.7956 0 29 0ZM7 3.5C7.69223 3.5 8.36892 3.70527 8.9445 4.08986C9.52007 4.47444 9.96867 5.02106 10.2336 5.66061C10.4985 6.30015 10.5678 7.00388 10.4327 7.68282C10.2977 8.36175 9.96436 8.98539 9.47487 9.47488C8.98539 9.96436 8.36175 10.2977 7.68282 10.4327C7.00388 10.5678 6.30015 10.4985 5.66061 10.2336C5.02107 9.96867 4.47444 9.52007 4.08986 8.9445C3.70527 8.36892 3.5 7.69223 3.5 7C3.5 6.07174 3.86875 5.1815 4.52513 4.52512C5.1815 3.86875 6.07174 3.5 7 3.5ZM28 20H4V17L8.469 12.53C8.53869 12.46 8.62151 12.4045 8.71272 12.3666C8.80393 12.3287 8.90173 12.3092 9.0005 12.3092C9.09927 12.3092 9.19707 12.3287 9.28828 12.3666C9.37949 12.4045 9.46231 12.46 9.532 12.53L13 16L21.469 7.53C21.5387 7.46 21.6215 7.40446 21.7127 7.36656C21.8039 7.32866 21.9017 7.30916 22.0005 7.30916C22.0993 7.30916 22.1971 7.32866 22.2883 7.36656C22.3795 7.40446 22.4623 7.46 22.532 7.53L28 13V20Z" fill="#434A81"/>
</svg>
