<svg width="20" height="21" viewBox="0 0 20 21" fill="none" xmlns="http://www.w3.org/2000/svg">
<g clip-path="url(#clip0)">
<path opacity="0.4" d="M11.8383 14.1346L11.8422 14.1383L10.9047 15.2287C10.8165 15.3307 10.7085 15.4121 10.5877 15.4678C10.467 15.5235 10.3362 15.5521 10.2039 15.5518H8.75001V17.1674C8.75001 17.4244 8.65124 17.671 8.47543 17.8528C8.29961 18.0345 8.06115 18.1367 7.81251 18.1367H6.25001V19.7522C6.25001 20.0093 6.15124 20.2558 5.97542 20.4376C5.79961 20.6194 5.56115 20.7215 5.31251 20.7215H0.937504C0.688863 20.7215 0.450406 20.6194 0.274591 20.4376C0.098775 20.2558 2.81903e-06 20.0093 2.81903e-06 19.7522V16.6019C-0.000299363 16.4745 0.0236953 16.3483 0.0706144 16.2305C0.117533 16.1127 0.186456 16.0056 0.273441 15.9153L6.59493 9.37937L6.59064 9.36523C6.97415 10.572 7.66303 11.6507 8.58579 12.4894C9.50855 13.328 10.6316 13.8961 11.8383 14.1346Z" fill="#838383"/>
<path d="M13.125 0.0429688C11.7653 0.0429687 10.436 0.459861 9.30546 1.24093C8.17487 2.02199 7.29368 3.13215 6.77333 4.43101C6.25298 5.72988 6.11683 7.15911 6.3821 8.53798C6.64737 9.91685 7.30216 11.1834 8.26364 12.1775C9.22513 13.1716 10.4501 13.8486 11.7838 14.1229C13.1174 14.3972 14.4997 14.2564 15.756 13.7184C17.0122 13.1804 18.0859 12.2693 18.8414 11.1004C19.5968 9.93142 20 8.55711 20 7.15123C20 5.266 19.2757 3.45799 17.9864 2.12493C16.6971 0.791873 14.9484 0.0429688 13.125 0.0429688V0.0429688ZM15 7.15123C14.6292 7.15123 14.2667 7.03753 13.9583 6.82451C13.65 6.61149 13.4096 6.30872 13.2677 5.95449C13.1258 5.60025 13.0887 5.21046 13.161 4.83441C13.2334 4.45835 13.412 4.11292 13.6742 3.8418C13.9364 3.57068 14.2705 3.38605 14.6342 3.31125C14.9979 3.23644 15.3749 3.27483 15.7175 3.42156C16.0602 3.56829 16.353 3.81677 16.559 4.13557C16.765 4.45438 16.875 4.82919 16.875 5.21261C16.875 5.72676 16.6775 6.21986 16.3258 6.58342C15.9742 6.94698 15.4973 7.15123 15 7.15123Z" fill="#838383"/>
</g>
<defs>
<clipPath id="clip0">
<rect y="0.0429688" width="20" height="20.6786" fill="white"/>
</clipPath>
</defs>
</svg>
