<svg width="32" height="32" viewBox="0 0 32 32" fill="none" xmlns="http://www.w3.org/2000/svg">
<g clip-path="url(#clip0)">
<path opacity="0.4" d="M2.77814 15.7868L5.09751 13.468C5.71251 12.853 6.77126 13.2618 6.80313 14.1305C6.84348 15.2525 7.04751 16.3625 7.40876 17.4255C7.47055 17.6033 7.48116 17.7949 7.43939 17.9784C7.39762 18.162 7.30515 18.3301 7.17251 18.4636L6.35438 19.2817C4.60438 21.0317 4.54813 23.8855 6.28251 25.6567C6.69912 26.0808 7.19556 26.4183 7.74321 26.6496C8.29086 26.8809 8.87888 27.0015 9.47337 27.0045C10.0679 27.0074 10.657 26.8927 11.207 26.6668C11.7569 26.441 12.2567 26.1085 12.6775 25.6886L16.875 21.4867C17.7183 20.6429 18.192 19.4988 18.192 18.3058C18.192 17.1129 17.7183 15.9687 16.875 15.1249C16.6759 14.9275 16.4596 14.7483 16.2287 14.5893C16.0999 14.501 15.9935 14.3838 15.918 14.2471C15.8426 14.1103 15.8003 13.9578 15.7944 13.8018C15.781 13.4571 15.8393 13.1135 15.9656 12.7926C16.0919 12.4716 16.2834 12.1804 16.5281 11.9374L17.8444 10.6249C18.0117 10.4584 18.2325 10.3562 18.4677 10.3363C18.7029 10.3164 18.9377 10.3801 19.1306 10.5161C20.2666 11.3093 21.2153 12.3412 21.9105 13.5397C22.6056 14.7381 23.0303 16.074 23.1549 17.4539C23.2794 18.8337 23.1006 20.2241 22.6312 21.5276C22.1618 22.8311 21.4131 24.0162 20.4375 24.9999L20.415 25.023L16.215 29.223C12.5106 32.9273 6.48376 32.9267 2.77751 29.223C-0.928737 25.5192 -0.926237 19.4905 2.77814 15.7868Z" fill="#5A5A5A"/>
<path d="M25.6457 12.7181C27.3957 10.9681 27.4519 8.11433 25.7175 6.34308C25.3008 5.91906 24.8043 5.58172 24.2566 5.35052C23.7089 5.11931 23.1209 4.99881 22.5264 4.99597C21.9319 4.99312 21.3427 5.10798 20.7929 5.33393C20.243 5.55988 19.7433 5.89245 19.3225 6.31245L15.125 10.5131C14.2817 11.3569 13.808 12.5011 13.808 13.694C13.808 14.887 14.2817 16.0311 15.125 16.875C15.3241 17.0723 15.5404 17.2516 15.7713 17.4106C15.9 17.4989 16.0063 17.6161 16.0816 17.7528C16.157 17.8896 16.1992 18.0421 16.205 18.1981C16.2187 18.5427 16.1606 18.8864 16.0344 19.2073C15.9082 19.5283 15.7166 19.8195 15.4719 20.0625L14.1556 21.3781C13.9882 21.5445 13.7675 21.6466 13.5323 21.6664C13.2971 21.6863 13.0624 21.6227 12.8694 21.4868C11.7329 20.6937 10.7837 19.6616 10.0882 18.4629C9.39271 17.2642 8.96782 15.9279 8.84331 14.5476C8.71879 13.1674 8.89767 11.7766 9.3674 10.4728C9.83713 9.16896 10.5863 7.98366 11.5625 6.99995L11.585 6.97683L15.785 2.77683C19.4894 -0.927549 25.5163 -0.926924 29.2225 2.77683C32.9288 6.48058 32.9269 12.5081 29.2225 16.2143L26.9032 18.5331C26.2882 19.1481 25.2294 18.7393 25.1975 17.8706C25.1572 16.7486 24.9531 15.6386 24.5919 14.5756C24.5301 14.3978 24.5195 14.2062 24.5613 14.0227C24.603 13.8391 24.6955 13.671 24.8282 13.5375L25.6457 12.7181Z" fill="#5A5A5A"/>
</g>
<defs>
<clipPath id="clip0">
<rect width="32" height="32" fill="white"/>
</clipPath>
</defs>
</svg>
