<svg width="27" height="27" viewBox="0 0 27 27" fill="none" xmlns="http://www.w3.org/2000/svg">
<g clip-path="url(#clip0)">
<path opacity="0.4" d="M4.21875 9.70312C3.4678 9.70312 2.73371 9.92581 2.10932 10.343C1.48493 10.7602 0.998273 11.3532 0.710897 12.047C0.42352 12.7408 0.348329 13.5042 0.494833 14.2407C0.641336 14.9773 1.00295 15.6538 1.53396 16.1848C2.06496 16.7158 2.7415 17.0774 3.47802 17.2239C4.21454 17.3704 4.97796 17.2952 5.67175 17.0079C6.36554 16.7205 6.95853 16.2338 7.37574 15.6094C7.79294 14.985 8.01563 14.251 8.01563 13.5C8.01563 12.493 7.6156 11.5273 6.90355 10.8152C6.1915 10.1032 5.22575 9.70312 4.21875 9.70312ZM4.21875 14.7656C3.96843 14.7656 3.72374 14.6914 3.51561 14.5523C3.30748 14.4133 3.14526 14.2156 3.04947 13.9843C2.95367 13.7531 2.92861 13.4986 2.97745 13.2531C3.02628 13.0076 3.14682 12.7821 3.32382 12.6051C3.50082 12.4281 3.72633 12.3075 3.97184 12.2587C4.21735 12.2099 4.47182 12.2349 4.70309 12.3307C4.93435 12.4265 5.13201 12.5887 5.27108 12.7969C5.41015 13.005 5.48438 13.2497 5.48438 13.5C5.48438 13.8357 5.35103 14.1576 5.11368 14.3949C4.87633 14.6323 4.55442 14.7656 4.21875 14.7656ZM22.7813 9.70312C22.0303 9.70312 21.2962 9.92581 20.6718 10.343C20.0474 10.7602 19.5608 11.3532 19.2734 12.047C18.986 12.7408 18.9108 13.5042 19.0573 14.2407C19.2038 14.9773 19.5655 15.6538 20.0965 16.1848C20.6275 16.7158 21.304 17.0774 22.0405 17.2239C22.777 17.3704 23.5405 17.2952 24.2343 17.0079C24.928 16.7205 25.521 16.2338 25.9382 15.6094C26.3554 14.985 26.5781 14.251 26.5781 13.5C26.5781 12.493 26.1781 11.5273 25.466 10.8152C24.754 10.1032 23.7882 9.70312 22.7813 9.70312ZM22.7813 14.7656C22.5309 14.7656 22.2862 14.6914 22.0781 14.5523C21.87 14.4133 21.7078 14.2156 21.612 13.9843C21.5162 13.7531 21.4911 13.4986 21.5399 13.2531C21.5888 13.0076 21.7093 12.7821 21.8863 12.6051C22.0633 12.4281 22.2888 12.3075 22.5343 12.2587C22.7799 12.2099 23.0343 12.2349 23.2656 12.3307C23.4968 12.4265 23.6945 12.5887 23.8336 12.7969C23.9727 13.005 24.0469 13.2497 24.0469 13.5C24.0469 13.8357 23.9135 14.1576 23.6762 14.3949C23.4388 14.6323 23.1169 14.7656 22.7813 14.7656ZM13.5 9.70312C12.7491 9.70312 12.015 9.92581 11.3906 10.343C10.7662 10.7602 10.2795 11.3532 9.99215 12.047C9.70477 12.7408 9.62958 13.5042 9.77608 14.2407C9.92259 14.9773 10.2842 15.6538 10.8152 16.1848C11.3462 16.7158 12.0227 17.0774 12.7593 17.2239C13.4958 17.3704 14.2592 17.2952 14.953 17.0079C15.6468 16.7205 16.2398 16.2338 16.657 15.6094C17.0742 14.985 17.2969 14.251 17.2969 13.5C17.2969 12.493 16.8969 11.5273 16.1848 10.8152C15.4727 10.1032 14.507 9.70312 13.5 9.70312ZM13.5 14.7656C13.2497 14.7656 13.005 14.6914 12.7969 14.5523C12.5887 14.4133 12.4265 14.2156 12.3307 13.9843C12.2349 13.7531 12.2099 13.4986 12.2587 13.2531C12.3075 13.0076 12.4281 12.7821 12.6051 12.6051C12.7821 12.4281 13.0076 12.3075 13.2531 12.2587C13.4986 12.2099 13.7531 12.2349 13.9843 12.3307C14.2156 12.4265 14.4133 12.5887 14.5523 12.7969C14.6914 13.005 14.7656 13.2497 14.7656 13.5C14.7656 13.8357 14.6323 14.1576 14.3949 14.3949C14.1576 14.6323 13.8357 14.7656 13.5 14.7656Z" fill="#434A81"/>
<path d="M4.21875 12.2344C3.96843 12.2344 3.72374 12.3086 3.51561 12.4477C3.30748 12.5867 3.14526 12.7844 3.04947 13.0157C2.95367 13.2469 2.92861 13.5014 2.97744 13.7469C3.02628 13.9924 3.14682 14.2179 3.32382 14.3949C3.50082 14.5719 3.72633 14.6925 3.97184 14.7413C4.21735 14.7901 4.47182 14.7651 4.70308 14.6693C4.93435 14.5735 5.13201 14.4113 5.27108 14.2031C5.41015 13.995 5.48438 13.7503 5.48438 13.5C5.48438 13.1643 5.35103 12.8424 5.11368 12.6051C4.87633 12.3677 4.55442 12.2344 4.21875 12.2344ZM13.5 12.2344C13.2497 12.2344 13.005 12.3086 12.7969 12.4477C12.5887 12.5867 12.4265 12.7844 12.3307 13.0157C12.2349 13.2469 12.2099 13.5014 12.2587 13.7469C12.3075 13.9924 12.4281 14.2179 12.6051 14.3949C12.7821 14.5719 13.0076 14.6925 13.2531 14.7413C13.4986 14.7901 13.7531 14.7651 13.9843 14.6693C14.2156 14.5735 14.4133 14.4113 14.5523 14.2031C14.6914 13.995 14.7656 13.7503 14.7656 13.5C14.7656 13.1643 14.6323 12.8424 14.3949 12.6051C14.1576 12.3677 13.8357 12.2344 13.5 12.2344ZM22.7813 12.2344C22.5309 12.2344 22.2862 12.3086 22.0781 12.4477C21.87 12.5867 21.7078 12.7844 21.612 13.0157C21.5162 13.2469 21.4911 13.5014 21.5399 13.7469C21.5888 13.9924 21.7093 14.2179 21.8863 14.3949C22.0633 14.5719 22.2888 14.6925 22.5343 14.7413C22.7799 14.7901 23.0343 14.7651 23.2656 14.6693C23.4968 14.5735 23.6945 14.4113 23.8336 14.2031C23.9727 13.995 24.0469 13.7503 24.0469 13.5C24.0469 13.1643 23.9135 12.8424 23.6762 12.6051C23.4388 12.3677 23.1169 12.2344 22.7813 12.2344Z" fill="#434A81"/>
</g>
<defs>
<clipPath id="clip0">
<rect width="27" height="27" fill="white"/>
</clipPath>
</defs>
</svg>
