<svg width="20" height="20" viewBox="0 0 20 20" fill="none" xmlns="http://www.w3.org/2000/svg">
<g clip-path="url(#clip0)">
<path opacity="0.4" d="M11.8383 13.6295L11.8422 13.633L10.9047 14.6877C10.8165 14.7863 10.7085 14.8651 10.5877 14.9189C10.467 14.9728 10.3362 15.0005 10.2039 15.0002H8.75001V16.5627C8.75001 16.8113 8.65124 17.0498 8.47543 17.2256C8.29961 17.4014 8.06115 17.5002 7.81251 17.5002H6.25001V19.0627C6.25001 19.3113 6.15124 19.5498 5.97542 19.7256C5.79961 19.9014 5.56115 20.0002 5.31251 20.0002H0.937504C0.688863 20.0002 0.450406 19.9014 0.274591 19.7256C0.098775 19.5498 2.81903e-06 19.3113 2.81903e-06 19.0627V16.0158C-0.000299363 15.8926 0.0236953 15.7705 0.0706144 15.6566C0.117533 15.5426 0.186456 15.439 0.273441 15.3518L6.59493 9.03027L6.59064 9.0166C6.97415 10.1838 7.66303 11.2271 8.58579 12.0382C9.50855 12.8494 10.6316 13.3988 11.8383 13.6295Z" fill="#838383"/>
<path d="M13.125 0C11.7653 0 10.436 0.403212 9.30546 1.15865C8.17487 1.91408 7.29368 2.98781 6.77333 4.24405C6.25298 5.50029 6.11683 6.88263 6.3821 8.21625C6.64737 9.54986 7.30216 10.7749 8.26364 11.7364C9.22513 12.6978 10.4501 13.3526 11.7838 13.6179C13.1174 13.8832 14.4997 13.747 15.756 13.2267C17.0122 12.7063 18.0859 11.8251 18.8414 10.6945C19.5968 9.56396 20 8.23475 20 6.875C20 5.05164 19.2757 3.30295 17.9864 2.01364C16.6971 0.724328 14.9484 0 13.125 0V0ZM15 6.875C14.6292 6.875 14.2667 6.76503 13.9583 6.55901C13.65 6.35298 13.4096 6.06014 13.2677 5.71753C13.1258 5.37492 13.0887 4.99792 13.161 4.63421C13.2334 4.27049 13.412 3.9364 13.6742 3.67417C13.9364 3.41195 14.2705 3.23338 14.6342 3.16103C14.9979 3.08868 15.3749 3.12581 15.7175 3.26773C16.0602 3.40964 16.353 3.64996 16.559 3.95831C16.765 4.26665 16.875 4.62916 16.875 5C16.875 5.49728 16.6775 5.97419 16.3258 6.32583C15.9742 6.67746 15.4973 6.875 15 6.875Z" fill="#838383"/>
</g>
<defs>
<clipPath id="clip0">
<rect width="20" height="20" fill="white"/>
</clipPath>
</defs>
</svg>
