<svg width="21" height="18" viewBox="0 0 21 18" fill="none" xmlns="http://www.w3.org/2000/svg">
<g clip-path="url(#clip0)">
<path opacity="0.4" d="M7.66739 1.125H2.77812C2.29185 1.125 1.8255 1.30279 1.48165 1.61926C1.13781 1.93572 0.944641 2.36495 0.944641 2.8125L0.944641 7.3125C0.944641 7.76005 1.13781 8.18928 1.48165 8.50574C1.8255 8.82221 2.29185 9 2.77812 9H5.83391V11.25C5.83331 11.8466 5.57555 12.4185 5.11723 12.8404C4.6589 13.2622 4.03745 13.4994 3.38928 13.5H3.0837C2.96361 13.4997 2.84464 13.5212 2.73358 13.5633C2.62252 13.6053 2.52154 13.6671 2.43641 13.745C2.35129 13.823 2.28368 13.9156 2.23744 14.0176C2.19121 14.1196 2.16726 14.229 2.16696 14.3395V16.0312C2.16666 16.1418 2.19001 16.2513 2.23569 16.3535C2.28137 16.4557 2.34847 16.5486 2.43317 16.627C2.51787 16.7053 2.61851 16.7676 2.72934 16.8101C2.84018 16.8527 2.95903 16.8747 3.07911 16.875H3.38928C4.19186 16.875 4.98659 16.7295 5.72808 16.4468C6.46957 16.1641 7.14331 15.7498 7.71083 15.2275C8.27834 14.7051 8.72852 14.0851 9.03565 13.4026C9.34279 12.7201 9.50087 11.9887 9.50087 11.25V2.8125C9.50087 2.36495 9.3077 1.93572 8.96386 1.61926C8.62001 1.30279 8.15366 1.125 7.66739 1.125Z" fill="#434A81"/>
<path d="M18.6683 1.125H13.779C13.2927 1.125 12.8264 1.30279 12.4825 1.61926C12.1387 1.93572 11.9455 2.36495 11.9455 2.8125V7.3125C11.9455 7.76005 12.1387 8.18928 12.4825 8.50574C12.8264 8.82221 13.2927 9 13.779 9H16.8348V11.25C16.8342 11.8466 16.5764 12.4185 16.1181 12.8404C15.6598 13.2622 15.0383 13.4994 14.3901 13.5H14.0846C13.9645 13.4997 13.8455 13.5212 13.7344 13.5633C13.6234 13.6053 13.5224 13.6671 13.4373 13.745C13.3522 13.823 13.2845 13.9156 13.2383 14.0176C13.1921 14.1196 13.1681 14.229 13.1678 14.3395V16.0312C13.1675 16.1418 13.1909 16.2513 13.2366 16.3535C13.2822 16.4557 13.3493 16.5486 13.434 16.627C13.5187 16.7053 13.6194 16.7676 13.7302 16.8101C13.841 16.8527 13.9599 16.8747 14.08 16.875H14.3901C16.011 16.875 17.5655 16.2824 18.7117 15.2275C19.8578 14.1726 20.5017 12.7418 20.5017 11.25V2.8125C20.5017 2.36495 20.3086 1.93572 19.9647 1.61926C19.6209 1.30279 19.1545 1.125 18.6683 1.125Z" fill="#434A81"/>
</g>
<defs>
<clipPath id="clip0">
<rect x="0.944641" width="19.5571" height="18" fill="white"/>
</clipPath>
</defs>
</svg>
