<svg width="20" height="18" viewBox="0 0 20 18" fill="none" xmlns="http://www.w3.org/2000/svg">
<g clip-path="url(#clip0)">
<path opacity="0.4" d="M19.6194 11.3318C19.6194 13.4918 18.1075 15.6314 16.4364 16.7504C15.9146 17.0995 15.1717 16.6611 15.3638 16.0955C17.0957 10.9978 14.5422 9.64394 8.61852 9.56519V4.78394C14.7542 4.84827 19.6194 5.97995 19.6194 11.3318Z" fill="#838383"/>
<path d="M8.61851 12.6563C8.61851 13.384 7.69031 13.762 7.10245 13.2947L0.379703 7.951C0.280103 7.87179 0.200204 7.77377 0.145439 7.6636C0.0906745 7.55344 0.0623283 7.43371 0.0623283 7.31256C0.0623283 7.19141 0.0906745 7.07168 0.145439 6.96152C0.200204 6.85135 0.280103 6.75333 0.379703 6.67412L7.10245 1.33037C7.69108 0.863146 8.61851 1.24283 8.61851 1.96881V12.6563Z" fill="#838383"/>
</g>
<defs>
<clipPath id="clip0">
<rect x="0.0622864" width="19.5571" height="18" fill="white"/>
</clipPath>
</defs>
</svg>
