<svg width="32" height="27" viewBox="0 0 32 27" fill="none" xmlns="http://www.w3.org/2000/svg">
<path d="M28.7106 6.80382C28.7309 7.09771 28.7309 7.39167 28.7309 7.68557C28.7309 16.6497 22.132 26.9785 10.0711 26.9785C6.35531 26.9785 2.90356 25.8658 0 23.9345C0.527937 23.9975 1.0355 24.0185 1.58375 24.0185C4.64969 24.0185 7.47206 22.9478 9.72587 21.1214C6.84262 21.0584 4.42637 19.106 3.59387 16.4188C4 16.4818 4.40606 16.5238 4.8325 16.5238C5.42131 16.5238 6.01019 16.4398 6.55837 16.2929C3.55331 15.663 1.29944 12.9339 1.29944 9.63795V9.554C2.1725 10.0578 3.18781 10.3727 4.26387 10.4147C2.49737 9.19704 1.34006 7.11871 1.34006 4.76743C1.34006 3.50785 1.66487 2.35321 2.23344 1.34552C5.46187 5.46023 10.3147 8.14734 15.7562 8.4413C15.6547 7.93746 15.5938 7.41267 15.5938 6.88783C15.5938 3.15095 18.5177 0.106934 22.1522 0.106934C24.0405 0.106934 25.7461 0.925676 26.9441 2.24826C28.4262 1.95437 29.8476 1.38752 31.1065 0.61078C30.6191 2.18532 29.5836 3.50791 28.2232 4.34759C29.5431 4.20071 30.8222 3.82274 31.9999 3.29796C31.1066 4.64149 29.9898 5.83806 28.7106 6.80382Z" fill="#838383"/>
</svg>
