<svg width="33" height="26" viewBox="0 0 33 26" fill="none" xmlns="http://www.w3.org/2000/svg">
<path d="M29.3106 6.48201C29.3309 6.76626 29.3309 7.05057 29.3309 7.33482C29.3309 16.0048 22.732 25.9947 10.6711 25.9947C6.95532 25.9947 3.50357 24.9185 0.600006 23.0506C1.12794 23.1114 1.63551 23.1318 2.18376 23.1318C5.24969 23.1318 8.07207 22.0963 10.3259 20.3298C7.44263 20.2688 5.02638 18.3805 4.19388 15.7815C4.60001 15.8424 5.00607 15.883 5.43251 15.883C6.02132 15.883 6.61019 15.8018 7.15838 15.6597C4.15332 15.0505 1.89944 12.4109 1.89944 9.22313V9.14195C2.77251 9.62926 3.78782 9.93382 4.86388 9.97438C3.09738 8.7967 1.94007 6.78657 1.94007 4.51245C1.94007 3.2942 2.26488 2.17745 2.83344 1.20282C6.06188 5.18251 10.9147 7.78145 16.3563 8.06576C16.2548 7.57845 16.1938 7.07088 16.1938 6.56326C16.1938 2.94901 19.1177 0.00488281 22.7522 0.00488281C24.6405 0.00488281 26.3461 0.796758 27.5441 2.07595C29.0263 1.7917 30.4476 1.24345 31.7065 0.492195C31.2191 2.01507 30.1836 3.29426 28.8233 4.10638C30.1431 3.96432 31.4223 3.59876 32.5999 3.0912C31.7066 4.39063 30.5898 5.54795 29.3106 6.48201Z" fill="#838383"/>
</svg>
