<svg width="18" height="22" viewBox="0 0 18 22" fill="none" xmlns="http://www.w3.org/2000/svg">
<g clip-path="url(#clip0)">
<path opacity="0.4" d="M13.75 5.55001C13.75 6.57247 13.4567 7.57197 12.9073 8.42211C12.3579 9.27226 11.577 9.93486 10.6634 10.3261C9.74977 10.7174 8.74444 10.8198 7.77454 10.6203C6.80464 10.4209 5.91372 9.92849 5.21446 9.2055C4.5152 8.48252 4.039 7.56137 3.84607 6.55856C3.65315 5.55575 3.75216 4.51631 4.1306 3.57168C4.50904 2.62705 5.1499 1.81966 5.97214 1.25161C6.79439 0.683565 7.76108 0.380371 8.74999 0.380371C10.0761 0.380371 11.3478 0.925028 12.2855 1.89452C13.2232 2.86402 13.75 4.17894 13.75 5.55001Z" fill="#434A81"/>
<path d="M12.25 12.0122H11.5977C10.7048 12.4379 9.73323 12.6583 8.75 12.6583C7.76677 12.6583 6.79523 12.4379 5.90234 12.0122H5.25C3.85771 12.0125 2.52253 12.5845 1.53803 13.6024C0.553534 14.6203 0.000310675 16.0008 0 17.4403L0 19.1205C0 19.6346 0.197544 20.1277 0.549175 20.4913C0.900805 20.8548 1.37772 21.0591 1.875 21.0591H15.625C16.1223 21.0591 16.5992 20.8548 16.9508 20.4913C17.3025 20.1277 17.5 19.6346 17.5 19.1205V17.4403C17.4997 16.0008 16.9465 14.6203 15.962 13.6024C14.9775 12.5845 13.6423 12.0125 12.25 12.0122Z" fill="#434A81"/>
</g>
<defs>
<clipPath id="clip0">
<rect y="0.380371" width="17.5" height="20.6786" fill="white"/>
</clipPath>
</defs>
</svg>
